<svg xmlns="http://www.w3.org/2000/svg" width="1200" height="630" viewBox="0 0 1200 630" role="img" aria-labelledby="title desc">
  <title id="title">Tomodachi Life Personality Planner preview image</title>
  <desc id="desc">Nintendo-inspired preview showing slider planner workflow: choose personality, match sliders, get exact result.</desc>
  <defs>
    <linearGradient id="bg" x1="0" y1="0" x2="0" y2="1">
      <stop offset="0%" stop-color="#fffdf5"/>
      <stop offset="100%" stop-color="#f6f3e9"/>
    </linearGradient>
    <style>
      .title { font: 700 60px 'Trebuchet MS', 'Arial Rounded MT Bold', sans-serif; fill: #222; }
      .subtitle { font: 700 34px 'Trebuchet MS', 'Arial Rounded MT Bold', sans-serif; fill: #5a3900; }
      .h2 { font: 700 36px 'Trebuchet MS', 'Arial Rounded MT Bold', sans-serif; fill: #1f2e3d; }
      .body { font: 600 29px 'Trebuchet MS', 'Arial Rounded MT Bold', sans-serif; fill: #282828; }
      .small { font: 700 24px 'Trebuchet MS', 'Arial Rounded MT Bold', sans-serif; fill: #2a2a2a; }
      .tag { font: 700 28px 'Trebuchet MS', 'Arial Rounded MT Bold', sans-serif; fill: #fff; }
    </style>
  </defs>

  <rect width="1200" height="630" fill="url(#bg)"/>

  <rect x="60" y="42" width="1080" height="138" rx="30" fill="#ffe27a" stroke="#d5a52b" stroke-width="6"/>
  <rect x="84" y="73" width="240" height="75" rx="36" fill="#e60012"/>
  <circle cx="120" cy="110" r="17" fill="#fff"/>
  <circle cx="290" cy="110" r="17" fill="#fff"/>
  <text x="348" y="105" class="subtitle">Tomodachi Life</text>
  <text x="348" y="156" class="title">Personality Planner</text>

  <rect x="68" y="208" width="698" height="354" rx="26" fill="#ffffff" stroke="#ddb53e" stroke-width="5"/>
  <text x="105" y="258" class="h2">How it works</text>

  <g transform="translate(104,290)">
    <rect x="0" y="0" width="14" height="14" rx="3" fill="#2f93de"/>
    <text x="24" y="12" class="body">1) Pick a target personality</text>

    <rect x="0" y="84" width="14" height="14" rx="3" fill="#66c59b"/>
    <text x="24" y="96" class="body">2) Choose allowed slider values</text>

    <rect x="0" y="168" width="14" height="14" rx="3" fill="#f07d12"/>
    <text x="24" y="180" class="body">3) Get your exact matching Mii type</text>
  </g>

  <rect x="790" y="208" width="340" height="354" rx="26" fill="#fff8d5" stroke="#ddb53e" stroke-width="5"/>
  <text x="820" y="258" class="h2" style="font-size:32px;">Live slider fit</text>

  <g transform="translate(818,286)">
    <text x="0" y="0" class="small">Movement</text>
    <g transform="translate(118,-16)">
      <rect x="0" y="0" width="18" height="18" rx="4" fill="#66c59b"/><rect x="22" y="0" width="18" height="18" rx="4" fill="#66c59b"/><rect x="44" y="0" width="18" height="18" rx="4" fill="#66c59b"/><rect x="66" y="0" width="18" height="18" rx="4" fill="#66c59b"/><rect x="88" y="0" width="18" height="18" rx="4" fill="#66c59b"/><rect x="110" y="0" width="18" height="18" rx="4" fill="#f07d12"/><rect x="132" y="0" width="18" height="18" rx="4" fill="#e8c8ab"/><rect x="154" y="0" width="18" height="18" rx="4" fill="#e8c8ab"/>
    </g>

    <text x="0" y="62" class="small">Speech</text>
    <g transform="translate(118,46)">
      <rect x="0" y="0" width="18" height="18" rx="4" fill="#66c59b"/><rect x="22" y="0" width="18" height="18" rx="4" fill="#66c59b"/><rect x="44" y="0" width="18" height="18" rx="4" fill="#66c59b"/><rect x="66" y="0" width="18" height="18" rx="4" fill="#66c59b"/><rect x="88" y="0" width="18" height="18" rx="4" fill="#66c59b"/><rect x="110" y="0" width="18" height="18" rx="4" fill="#66c59b"/><rect x="132" y="0" width="18" height="18" rx="4" fill="#f07d12"/><rect x="154" y="0" width="18" height="18" rx="4" fill="#e8c8ab"/>
    </g>

    <text x="0" y="124" class="small">Energy</text>
    <g transform="translate(118,108)">
      <rect x="0" y="0" width="18" height="18" rx="4" fill="#66c59b"/><rect x="22" y="0" width="18" height="18" rx="4" fill="#66c59b"/><rect x="44" y="0" width="18" height="18" rx="4" fill="#66c59b"/><rect x="66" y="0" width="18" height="18" rx="4" fill="#66c59b"/><rect x="88" y="0" width="18" height="18" rx="4" fill="#f07d12"/><rect x="110" y="0" width="18" height="18" rx="4" fill="#e8c8ab"/><rect x="132" y="0" width="18" height="18" rx="4" fill="#e8c8ab"/><rect x="154" y="0" width="18" height="18" rx="4" fill="#e8c8ab"/>
    </g>

    <text x="0" y="186" class="small">Attitude</text>
    <g transform="translate(118,170)">
      <rect x="0" y="0" width="18" height="18" rx="4" fill="#66c59b"/><rect x="22" y="0" width="18" height="18" rx="4" fill="#66c59b"/><rect x="44" y="0" width="18" height="18" rx="4" fill="#66c59b"/><rect x="66" y="0" width="18" height="18" rx="4" fill="#66c59b"/><rect x="88" y="0" width="18" height="18" rx="4" fill="#66c59b"/><rect x="110" y="0" width="18" height="18" rx="4" fill="#66c59b"/><rect x="132" y="0" width="18" height="18" rx="4" fill="#66c59b"/><rect x="154" y="0" width="18" height="18" rx="4" fill="#f07d12"/>
    </g>
  </g>

  <rect x="60" y="578" width="1080" height="42" rx="20" fill="#2f93de"/>
  <text x="143" y="607" class="tag">Nintendo-style planner • Fast Mii builds • Clear personality matching</text>
</svg>
